<?xml version="1.0" encoding="utf-8"?>
<!-- Generator: Adobe Illustrator 16.0.0, SVG Export Plug-In . SVG Version: 6.00 Build 0)  -->
<!DOCTYPE svg PUBLIC "-//W3C//DTD SVG 1.1//EN" "http://www.w3.org/Graphics/SVG/1.1/DTD/svg11.dtd">
<svg version="1.1" id="Layer_1" xmlns="http://www.w3.org/2000/svg" xmlns:xlink="http://www.w3.org/1999/xlink" x="0px" y="0px"
	 width="1080px" height="1008px" viewBox="0 0 1080 1008" enable-background="new 0 0 1080 1008" xml:space="preserve">
<path fill-rule="evenodd" clip-rule="evenodd" fill="#FF5285" d="M866.894,387.675c-2.109-12.893-5.113-24.765-10.978-36.005
	c-2.957-7.524-2.308-18.596-0.638-30.776c7.394-53.847-1.055-252.341-101.358-193.215
	c-100.301,59.126-114.028,68.628-114.028,68.628s-14.78,12.67-50.68,3.167l-4.056-0.709c-48.304-8.572-90.459-10.546-97.273-10.819
	v-0.037c0,0-0.173,0.006-0.494,0.018c-0.318-0.012-0.492-0.018-0.492-0.018v0.037c-6.814,0.273-48.968,2.248-97.273,10.819
	l-4.056,0.709c-35.897,9.502-50.679-3.167-50.679-3.167s-13.726-9.502-114.029-68.628
	C120.557,68.552,112.111,267.046,119.501,320.894c1.672,12.18,2.321,23.251-0.635,30.776c-5.865,11.241-8.869,23.113-10.979,36.005
	c0,0-59.146,362.794,379.501,345.981C926.039,750.469,866.894,387.675,866.894,387.675z"/>
<path fill-rule="evenodd" clip-rule="evenodd" fill="#3CECFF" d="M964.03,540.77c-2.109-12.893-5.113-24.765-10.978-36.005
	c-2.957-7.524-2.308-18.596-0.638-30.776c7.393-53.847-1.055-252.341-101.358-193.215
	c-100.303,59.126-114.029,68.628-114.029,68.628s-14.78,12.67-50.679,3.167l-4.056-0.71c-48.306-8.571-90.46-10.545-97.274-10.819
	v-0.037c0,0-0.173,0.006-0.493,0.018c-0.318-0.012-0.492-0.018-0.492-0.018v0.037c-6.813,0.274-48.968,2.248-97.273,10.819
	l-4.056,0.71c-35.897,9.502-50.679-3.167-50.679-3.167s-13.726-9.502-114.029-68.628
	c-100.303-59.126-108.749,139.368-101.358,193.215c1.672,12.181,2.32,23.252-0.635,30.776c-5.865,11.241-8.869,23.113-10.979,36.005
	c0,0-59.146,362.793,379.501,345.981C1023.176,903.563,964.03,540.77,964.03,540.77z"/>
<path fill-rule="evenodd" clip-rule="evenodd" fill="#FF5285" d="M733.895,529.947c-50.969,0-92.287,42.898-92.287,95.814
	c0,52.919,41.318,95.817,92.287,95.817c50.97,0,92.289-42.898,92.289-95.817C826.184,572.846,784.864,529.947,733.895,529.947z
	 M733.068,678.008c-26.459,0-47.908-22.267-47.908-49.739c0-27.469,21.449-49.739,47.908-49.739
	c26.458,0,47.908,22.271,47.908,49.739C780.977,655.741,759.526,678.008,733.068,678.008z"/>
<path fill-rule="evenodd" clip-rule="evenodd" fill="#FF5285" d="M426.649,529.947c-50.968,0-92.286,42.898-92.286,95.814
	c0,52.919,41.318,95.817,92.286,95.817c50.97,0,92.29-42.898,92.29-95.817C518.939,572.846,477.62,529.947,426.649,529.947z
	 M425.824,678.008c-26.459,0-47.908-22.267-47.908-49.739c0-27.469,21.448-49.739,47.908-49.739
	c26.458,0,47.908,22.271,47.908,49.739C473.731,655.741,452.282,678.008,425.824,678.008z"/>
</svg>
